#!OML:ASF F:\VICON\USERDATA\INSTALL\rory3\rory3.ASF
:FULLY-SPECIFIED
:DEGREES
1
root 0.4106850000000007 18.0493 -29.325900000000082 -3.4547800000000017 -0.9963840000000009 -0.7637760000000038
lfemur -12.478700000000005 0.003244919999997098 -23.032000000000007
ltibia 22.999200000000002
lfoot -4.779719999999995 -3.8768200000000013
ltoes -28.359299999999987
rfemur -13.5872 -1.373070000000003 22.791399999999992
rtibia 71.87849999999996
rfoot 4.3704600000000005 -6.678689999999998
rtoes 2.5044800000000005
lowerback -1.0 1.0060700000000018 -0.4383840000000021
upperback 0.7028619999999992 1.3257600000000012 0.7980750000000014
thorax -6.36137 0.6727169999999989 0.8514590000000006
lowerneck -16.8143 -3.48249 -1.8858100000000002
upperneck 21.4695 -4.57105 0.9233459999999994
head 9.6373 -2.17138 0.032200399999999685
lclavicle 1.4026699999999994e-14 -3.67752e-15
lhumerus -32.4499 9.24841000000001 80.3469
lradius 21.328199999999995
lwrist 5.319759999999999
lhand -25.309200000000008 20.9274
lfingers 7.12502
lthumb 1.21295000000001 50.9037
rclavicle 1.4026699999999994e-14 -3.67752e-15
rhumerus -25.9904 -20.0858 -79.5672
rradius 25.467600000000008
rwrist 5.99779
rhand -18.4138 -1.0
rfingers 7.12502
rthumb 7.87101 -6.681580000000001
2
root 0.4529709999999996 18.0666 -28.70089999999996 -3.820159999999998 -0.5581809999999999 -0.6461910000000035
lfemur -10.215900000000005 -0.2102499999999996 -23.4503
ltibia 23.78730000000001
lfoot -6.73646 -2.5556000000000005
ltoes -27.294999999999966
rfemur -18.143100000000004 -2.180729999999998 22.714200000000012
rtibia 74.24839999999993
rfoot -0.038760600000003365 -8.65929
rtoes -1.2459199999999986
lowerback -1.0 0.8303120000000002 -0.5968020000000007
upperback 0.6256719999999982 1.0627600000000008 0.7098379999999991
thorax -6.722729999999999 0.5483480000000005 0.8888190000000005
lowerneck -16.5115 -3.35192 -1.6222199999999996
upperneck 21.8333 -4.48465 0.9632589999999991
head 9.70222 -2.10511 0.01614569999999932
lclavicle 6.460500000000009e-16 -6.957459999999992e-16
lhumerus -30.8622 7.961929999999997 80.099
lradius 21.325000000000006
lwrist 5.289690000000003
lhand -24.995400000000004 17.9966
lfingers 7.12502
lthumb 1.516040000000011 47.9709
rclavicle 6.460500000000009e-16 -6.957459999999992e-16
rhumerus -28.0931 -22.8052 -78.3934
rradius 24.6687
rwrist 6.180049999999996
rhand -14.878200000000005 -1.0
rfingers 7.12502
rthumb 11.2822 -14.942499999999995
3
root 0.488341 18.059 -28.060399999999937 -3.8760399999999997 0.555069999999999 -0.4767020000000013
lfemur -7.98223 -0.6808609999999988 -23.912600000000012
ltibia 24.122899999999994
lfoot -8.793609999999997 -1.69622
ltoes -26.236599999999957
rfemur -22.36650000000001 -3.296720000000003 22.681100000000004
rtibia 73.99149999999995
rfoot -3.0387199999999908 -7.622960000000001
rtoes 1.779400000000001
lowerback -1.0 0.3143199999999997 -1.120820000000003
upperback 0.3839560000000001 0.3204219999999999 0.9710930000000012
thorax -6.88067 0.20934100000000005 1.6009699999999998
lowerneck -15.377000000000004 -3.1874699999999994 -1.93202
upperneck 21.9851 -4.1633000000000004 0.8274189999999993
head 9.54344 -2.00524 0.08079620000000012
lclavicle -9.25591000000002e-16 1.1728299999999985e-14
lhumerus -30.0453 6.699669999999994 80.5345
lradius 22.576499999999992
lwrist 6.048
lhand -25.05720000000001 23.200799999999997
lfingers 7.12502
lthumb 1.4563399999999902 53.1755
rclavicle -9.25591000000002e-16 1.1728299999999985e-14
rhumerus -30.2971 -23.064000000000004 -77.37
rradius 24.198499999999996
rwrist 5.752369999999997
rhand -14.646199999999995 -1.0
rfingers 7.12502
rthumb 11.506000000000007 -17.95719999999999
4
root 0.5191950000000002 18.0115 -27.442700000000016 -3.794559999999999 1.6081800000000017 0.10221900000000161
lfemur -6.311519999999997 -0.8856400000000022 -24.779600000000006
ltibia 24.996500000000008
lfoot -10.808499999999993 -1.3174599999999965
ltoes -21.618600000000004
rfemur -26.12829999999999 -3.8881200000000025 22.186699999999995
rtibia 71.28629999999993
rfoot -7.364809999999999 -7.199989999999998
rtoes -2.6814099999999916
lowerback -1.0 0.06638500000000006 -1.6412400000000014
upperback 0.9488129999999992 -0.09761709999999912 0.8003870000000014
thorax -6.31574 0.008942120000000081 1.790219999999999
lowerneck -17.9581 -3.24717 -1.4631000000000003
upperneck 22.618 -4.27589 0.5639570000000014
head 10.2373 -2.02662 -0.1545779999999995
lclavicle 9.007429999999986e-15 -1.2920999999999989e-14
lhumerus -26.96880000000001 4.22591 81.0729
lradius 23.377599999999997
lwrist 8.173070000000001
lhand -25.131800000000005 18.646
lfingers 7.12502
lthumb 1.384250000000005 48.6213
rclavicle 9.007429999999986e-15 -1.2920999999999989e-14
rhumerus -30.6163 -24.1678 -77.3258
rradius 24.362500000000004
rwrist 6.212750000000003
rhand -17.147899999999996 -1.0
rfingers 7.12502
rthumb 9.09265 -6.342009999999999
